<svg xmlns="http://www.w3.org/2000/svg" xmlns:xlink="http://www.w3.org/1999/xlink" version="1.1" x="0px" y="0px" viewBox="0 0 59 62.5" style="enable-background:new 0 0 59 50;" xml:space="preserve"><g><g><path d="M34,22h-2.4c-0.9,0-1.6,0.7-2.1,1.6C29,22.7,28.3,22,27.4,22H25c-0.6,0-1,0.4-1,1s0.4,1,1,1h2.3c0.3,0.2,0.9,1.4,1.2,2.4    c0.1,0.4,0.5,0.7,1,0.7c0,0,0,0,0,0c0.4,0,0.8-0.3,1-0.7c0.3-1.1,0.9-2.2,1.2-2.4H34c0.6,0,1-0.4,1-1S34.6,22,34,22z"/><path d="M37.1,0H30h-1h-7.1C15.3,0,10,5.3,10,11.9v18.3c0,3.7,2.6,6.8,6,7.6V42c0,4.5,4,8,9,8h9c5,0,9-3.6,9-8.2v-4.1    c3.4-0.8,6-3.9,6-7.6V11.9C49,5.3,43.7,0,37.1,0z M41,36v2v3.8c0,3.9-3.6,6.2-7,6.2h-9c-3.4,0-7-2.1-7-6v-4v-1v-2h23V36z M43,21.5    c0,1.9-1.6,3.5-3.5,3.5c0,0-1.3,0.3-0.2,2c0.8,1.2,1.5,3.1,1.7,6H18c0.2-2.9,0.9-4.8,1.7-6c1.1-1.7-0.2-2-0.2-2    c-1.9,0-3.5-1.6-3.5-3.5v-5.7c0-2.3,1.4-4.4,3.6-5.1c3.6-1.1,6.7,1.7,6.7,5.3H29h1h2.7c0-3.5,3.1-6.3,6.7-5.3    c2.2,0.6,3.6,2.8,3.6,5.1V21.5z"/><path d="M0,16.8v2.6c0,3,2.5,5.6,5.5,5.6H8c0-0.7,0-3.3,0-6H5c-0.6,0-1-0.4-1-1s0.4-1,1-1h3c0-3,0.1-5.7,0.1-6H5.5    C2.5,11,0,13.8,0,16.8z"/><path d="M53.5,11h-2.6c0.1,0.6,0.1,1.3,0.1,1.9c0,0.4,0,2.1,0,4.1h3c0.6,0,1,0.4,1,1s-0.4,1-1,1h-3c0,2.8,0,5.5,0,6h2.5    c3,0,5.5-2.5,5.5-5.5v-2.6C59,13.8,56.5,11,53.5,11z"/><circle cx="38" cy="17" r="2"/><circle cx="21" cy="17" r="2"/></g></g><text x="0" y="65" fill="#000000" font-size="5px" font-weight="bold" font-family="'Helvetica Neue', Helvetica, Arial-Unicode, Arial, Sans-serif">Created by madebygrids</text><text x="0" y="70" fill="#000000" font-size="5px" font-weight="bold" font-family="'Helvetica Neue', Helvetica, Arial-Unicode, Arial, Sans-serif">from the Noun Project</text></svg>